<svg width="81" height="150" viewBox="0 0 81 150" fill="none" xmlns="http://www.w3.org/2000/svg">
<path d="M79.1942 99.1908C79.1942 107.729 76.418 115.081 70.8655 121.247C65.3131 127.414 58.1004 131.222 49.2277 132.673V147.321C49.2277 148.103 48.9766 148.744 48.4743 149.247C47.9721 149.749 47.3304 150 46.5491 150H35.2489C34.5234 150 33.8956 149.735 33.3655 149.205C32.8354 148.675 32.5703 148.047 32.5703 147.321V132.673C28.8873 132.171 25.3298 131.306 21.8979 130.078C18.466 128.85 15.6339 127.609 13.4018 126.353C11.1696 125.098 9.10491 123.758 7.20759 122.335C5.31027 120.912 4.01283 119.866 3.31529 119.196C2.61775 118.527 2.12946 118.025 1.85045 117.69C0.901786 116.518 0.845982 115.374 1.68304 114.258L10.3047 102.958C10.6953 102.4 11.3371 102.065 12.2299 101.953C13.067 101.842 13.7366 102.093 14.2388 102.706L14.4062 102.874C20.7121 108.398 27.4922 111.886 34.7466 113.337C36.8114 113.783 38.8761 114.007 40.9408 114.007C45.4609 114.007 49.4369 112.807 52.8689 110.407C56.3008 108.008 58.0167 104.604 58.0167 100.195C58.0167 98.6328 57.5982 97.154 56.7612 95.7589C55.9241 94.3638 54.9894 93.192 53.957 92.2433C52.9247 91.2946 51.2924 90.2483 49.0603 89.1044C46.8281 87.9604 44.9866 87.0675 43.5357 86.4258C42.0848 85.784 39.8527 84.8772 36.8393 83.7054C34.6629 82.8125 32.947 82.115 31.6914 81.6127C30.4358 81.1105 28.7199 80.3711 26.5435 79.3945C24.3672 78.418 22.6233 77.553 21.3119 76.7997C20.0006 76.0463 18.4241 75.0558 16.5826 73.8281C14.7411 72.6004 13.2483 71.4146 12.1044 70.2706C10.9604 69.1267 9.74665 67.7595 8.46317 66.1691C7.17969 64.5787 6.18917 62.9604 5.49163 61.3142C4.79408 59.668 4.20815 57.8125 3.73382 55.7478C3.25949 53.683 3.02232 51.5067 3.02232 49.2188C3.02232 41.5179 5.7567 34.7656 11.2254 28.9621C16.6942 23.1585 23.8092 19.4196 32.5703 17.7455V2.67857C32.5703 1.95312 32.8354 1.32533 33.3655 0.795201C33.8956 0.265067 34.5234 0 35.2489 0H46.5491C47.3304 0 47.9721 0.251116 48.4743 0.753348C48.9766 1.25558 49.2277 1.89732 49.2277 2.67857V17.4107C52.4085 17.7455 55.4916 18.3873 58.4771 19.3359C61.4626 20.2846 63.8901 21.2193 65.7595 22.1401C67.6289 23.0608 69.4007 24.1071 71.0748 25.279C72.7489 26.4509 73.837 27.26 74.3393 27.7065C74.8415 28.1529 75.26 28.5435 75.5949 28.8783C76.5435 29.8828 76.683 30.9431 76.0134 32.0592L69.2333 44.2801C68.7868 45.1172 68.1451 45.5636 67.308 45.6194C66.5268 45.7868 65.7734 45.5915 65.048 45.0335C64.8806 44.8661 64.476 44.5313 63.8343 44.029C63.1925 43.5268 62.1043 42.7874 60.5697 41.8108C59.0352 40.8343 57.4029 39.9414 55.673 39.1323C53.9431 38.3231 51.8644 37.5977 49.4369 36.9559C47.0095 36.3142 44.6239 35.9933 42.2801 35.9933C36.9788 35.9933 32.654 37.1931 29.3058 39.5926C25.9576 41.9922 24.2835 45.0893 24.2835 48.8839C24.2835 50.3348 24.5206 51.6741 24.995 52.9018C25.4693 54.1295 26.2924 55.2874 27.4643 56.3756C28.6362 57.4637 29.7383 58.3845 30.7706 59.1378C31.803 59.8912 33.3655 60.7561 35.4581 61.7327C37.5508 62.7093 39.2388 63.4626 40.5223 63.9927C41.8058 64.5229 43.7589 65.2902 46.3817 66.2946C49.3393 67.4107 51.5993 68.2896 53.1618 68.9314C54.7243 69.5731 56.8449 70.5497 59.5234 71.8611C62.202 73.1724 64.3086 74.3583 65.8432 75.4185C67.3778 76.4788 69.1077 77.8739 71.0329 79.6038C72.9581 81.3337 74.4369 83.1055 75.4693 84.9191C76.5017 86.7327 77.3806 88.8672 78.106 91.3225C78.8315 93.7779 79.1942 96.4007 79.1942 99.1908Z" fill="black"/>
</svg>
