<svg width="150" height="150" viewBox="0 0 150 150" fill="none" xmlns="http://www.w3.org/2000/svg">
<path fill-rule="evenodd" clip-rule="evenodd" d="M0 75C0 55.1088 7.90176 36.0322 21.967 21.967C36.0322 7.90176 55.1088 0 75 0C94.8912 0 113.968 7.90176 128.033 21.967C142.098 36.0322 150 55.1088 150 75C150 94.8912 142.098 113.968 128.033 128.033C113.968 142.098 94.8912 150 75 150C55.1088 150 36.0322 142.098 21.967 128.033C7.90176 113.968 0 94.8912 0 75ZM70.72 107.1L113.9 53.12L106.1 46.88L69.28 92.89L43.2 71.16L36.8 78.84L70.72 107.1Z" fill="black"/>
</svg>
